<?xml version="1.0" standalone="no"?>
<!DOCTYPE svg PUBLIC "-//W3C//DTD SVG 20010904//EN"
 "http://www.w3.org/TR/2001/REC-SVG-20010904/DTD/svg10.dtd">
<svg version="1.0" xmlns="http://www.w3.org/2000/svg"
 width="110.000000pt" height="79.000000pt" viewBox="0 0 110.000000 79.000000"
 preserveAspectRatio="xMidYMid meet">
<metadata>
Created by potrace 1.16, written by Peter Selinger 2001-2019
</metadata>
<g transform="translate(0.000000,79.000000) scale(0.100000,-0.100000)"
fill="#000000" stroke="none">
<path d="M465 618 c-31 -27 -49 -95 -36 -131 6 -14 19 -32 31 -40 l22 -15 -25
-17 c-66 -43 -75 -195 -15 -247 42 -37 99 -7 83 42 -5 15 -15 20 -44 20 -46 0
-61 14 -61 57 0 39 21 53 79 53 l41 0 0 -50 c0 -58 25 -126 51 -140 21 -12 89
-13 105 -2 26 18 44 60 44 101 0 34 -6 49 -27 68 l-26 25 26 21 c37 32 49 63
49 128 0 73 -25 123 -66 127 -36 4 -58 -15 -54 -47 3 -23 8 -26 39 -26 45 0
69 -19 69 -55 0 -36 -20 -51 -75 -58 l-45 -5 0 40 c0 69 -27 141 -60 158 -41
21 -75 19 -105 -7z m120 -93 c17 -16 25 -35 25 -60 l0 -35 -54 0 c-82 0 -133
51 -99 99 21 31 96 29 128 -4z m109 -206 c50 -39 20 -99 -50 -99 -47 0 -81 32
-86 80 l-4 40 57 0 c42 0 63 -5 83 -21z"/>
</g>
</svg>
